<svg xmlns="http://www.w3.org/2000/svg" width="21" height="21" viewBox="0 0 21 21">
    <g fill="#FFF" fill-rule="evenodd">
        <path d="M9.18 10.5L-.223 1.015a.596.596 0 0 1 0-.841.583.583 0 0 1 .833 0l9.82 9.907a.596.596 0 0 1 0 .84l-9.82 9.902a.573.573 0 0 1-.829 0 .596.596 0 0 1 0-.84l9.397-9.485z"/>
        <path d="M11.066 10.5l9.401-9.484a.596.596 0 0 0 0-.841.583.583 0 0 0-.833 0l-9.82 9.907a.596.596 0 0 0 0 .84l9.82 9.902a.573.573 0 0 0 .829 0 .596.596 0 0 0 0-.84l-9.397-9.485z"/>
    </g>
</svg>
