<svg xmlns="http://www.w3.org/2000/svg" width="40" height="40" viewBox="0 0 40 40">
    <path fill="#FFF" fill-rule="evenodd" d="M24.736 13.003L23.057 13c-1.886 0-3.105 1.352-3.105 3.445v1.589h-1.688c-.146 0-.264.128-.264.286v2.301c0 .158.118.286.264.286h1.688v5.808c0 .157.118.285.264.285h2.203c.146 0 .264-.128.264-.285v-5.808h1.974c.145 0 .264-.128.264-.286V18.32a.298.298 0 0 0-.077-.202.254.254 0 0 0-.187-.084h-1.974v-1.347c0-.647.142-.976.922-.976h1.131c.146 0 .264-.128.264-.285v-2.138c0-.157-.118-.285-.264-.285"/>
</svg>
