<svg xmlns="http://www.w3.org/2000/svg" xmlns:xlink="http://www.w3.org/1999/xlink" width="60" height="60" viewBox="0 0 60 60">
    <defs>
        <path id="a" d="M0 .01h13.359v14.308H0z"/>
        <path id="c" d="M.005.042H12.41v14.265H.005z"/>
    </defs>
    <g fill="none" fill-rule="evenodd">
        <path stroke="#FFF" stroke-width="2" d="M1 1h58v58H1z"/>
        <g transform="translate(19.5 24.682)">
            <mask id="b" fill="#fff">
                <use xlink:href="#a"/>
            </mask>
            <path fill="#FFF" d="M1.28 13.03a4.354 4.354 0 0 0 6.182 0l4.817-4.844c-1.701.199-2.727-.378-3.07-.464l-3.513 3.532a1.868 1.868 0 0 1-2.65 0 1.893 1.893 0 0 1 0-2.664l5.508-5.539a1.884 1.884 0 0 1 2.65 0c.059.06.103.127.153.192.263-.025.515.025.73-.192l1.272-1.279c-.124-.17-.237-.344-.39-.497-1.693-1.703-4.521-1.67-6.181 0L1.28 6.814a4.414 4.414 0 0 0 0 6.217" mask="url(#b)"/>
        </g>
        <g transform="translate(28.09 18)">
            <mask id="d" fill="#fff">
                <use xlink:href="#c"/>
            </mask>
            <path fill="#FFF" d="M11.201 1.345c-1.61-1.737-4.22-1.737-5.83 0l-4.348 4.69c1.605-.202 2.573.382 2.897.47l3.116-3.363a1.679 1.679 0 0 1 2.5 0c.688.744.688 1.953 0 2.696l-4.04 4.358-.959 1.034a1.692 1.692 0 0 1-2.499 0c-.056-.06-.098-.129-.144-.194-.249.025-.486-.025-.689.194l-1.2 1.294c.116.171.223.348.367.503a3.962 3.962 0 0 0 5.831 0l4.998-5.392c1.61-1.737 1.61-4.553 0-6.29" mask="url(#d)"/>
        </g>
    </g>
</svg>
