<svg xmlns="http://www.w3.org/2000/svg" width="40" height="40" viewBox="0 0 40 40">
    <g fill="#FFF" fill-rule="evenodd">
        <path d="M13.854 25.142a2.902 2.902 0 0 0 4.12 0l3.212-3.23c-1.134.132-1.818-.252-2.047-.31l-2.342 2.355c-.487.49-1.279.49-1.766 0a1.262 1.262 0 0 1 0-1.776l3.672-3.692a1.256 1.256 0 0 1 1.766 0c.04.04.07.085.102.128.176-.017.343.016.487-.128l.848-.853c-.082-.113-.158-.23-.26-.331-1.128-1.136-3.014-1.113-4.12 0l-3.672 3.692a2.942 2.942 0 0 0 0 4.145"/>
        <path d="M26.195 12.897c-1.074-1.158-2.814-1.158-3.888 0l-2.897 3.126c1.07-.134 1.715.255 1.93.313l2.078-2.241a1.12 1.12 0 0 1 1.666 0c.46.495.46 1.302 0 1.797l-2.693 2.906-.639.689a1.128 1.128 0 0 1-1.666 0c-.037-.04-.065-.086-.096-.13-.166.017-.324-.016-.46.13l-.8.862c.078.115.15.232.245.336a2.641 2.641 0 0 0 3.888 0l3.332-3.595c1.073-1.158 1.073-3.035 0-4.193"/>
    </g>
</svg>
