<svg xmlns="http://www.w3.org/2000/svg" xmlns:xlink="http://www.w3.org/1999/xlink" width="61" height="60" viewBox="0 0 61 60">
    <defs>
        <path id="a" d="M0 0h20v16H0z"/>
    </defs>
    <g fill="none" fill-rule="evenodd">
        <path stroke="#FFF" stroke-width="2" d="M1.667 1h58v58h-58z"/>
        <g transform="translate(21.667 22)">
            <mask id="b" fill="#fff">
                <use xlink:href="#a"/>
            </mask>
            <path fill="#FFF" d="M20 1.893a8.293 8.293 0 0 1-2.356.636A4.07 4.07 0 0 0 19.448.295a8.35 8.35 0 0 1-2.607.981A4.12 4.12 0 0 0 13.846 0C11.58 0 9.743 1.81 9.743 4.04c0 .316.036.625.106.92A11.708 11.708 0 0 1 1.393.74a3.964 3.964 0 0 0-.554 2.03c0 1.402.724 2.64 1.824 3.363a4.151 4.151 0 0 1-1.858-.507v.05c0 1.958 1.415 3.59 3.29 3.963a4.215 4.215 0 0 1-1.08.141c-.266 0-.522-.026-.773-.075a4.098 4.098 0 0 0 3.832 2.807 8.313 8.313 0 0 1-5.095 1.726A8.85 8.85 0 0 1 0 14.182 11.726 11.726 0 0 0 6.289 16c7.547 0 11.673-6.157 11.673-11.496l-.014-.523A8.127 8.127 0 0 0 20 1.893" mask="url(#b)"/>
        </g>
    </g>
</svg>
