<svg xmlns="http://www.w3.org/2000/svg" width="40" height="40" viewBox="0 0 40 40">
    <path fill="#FFF" fill-rule="evenodd" d="M27.333 15.929c-.49.214-1.017.36-1.57.424a2.713 2.713 0 0 0 1.202-1.49 5.566 5.566 0 0 1-1.738.655 2.747 2.747 0 0 0-1.996-.851c-1.51 0-2.736 1.206-2.736 2.693 0 .21.025.417.071.614a7.806 7.806 0 0 1-5.637-2.815c-.236.397-.37.86-.37 1.354 0 .935.483 1.76 1.216 2.242a2.768 2.768 0 0 1-1.238-.338v.033c0 1.305.943 2.394 2.193 2.642-.229.06-.47.094-.72.094-.177 0-.348-.017-.515-.05a2.732 2.732 0 0 0 2.554 1.871 5.542 5.542 0 0 1-3.397 1.151 5.9 5.9 0 0 1-.652-.037 7.818 7.818 0 0 0 4.193 1.212c5.031 0 7.781-4.104 7.781-7.664l-.009-.349a5.418 5.418 0 0 0 1.368-1.391"/>
</svg>
