<svg xmlns="http://www.w3.org/2000/svg" width="60" height="60" viewBox="0 0 60 60">
    <g fill="none" fill-rule="evenodd">
        <path stroke="#FFF" stroke-width="2" d="M1 1h58v58H1z"/>
        <path fill="#FFF" d="M45.836 37.256a2.183 2.183 0 0 0-.105-.205c-.538-.986-1.566-2.196-3.083-3.63l-.032-.034-.016-.016-.017-.016h-.016c-.688-.668-1.124-1.117-1.307-1.347-.334-.438-.409-.882-.226-1.331.129-.34.613-1.056 1.452-2.152.442-.58.791-1.045 1.05-1.396 1.86-2.519 2.668-4.128 2.42-4.83l-.096-.163c-.064-.099-.231-.189-.5-.271-.27-.082-.613-.096-1.033-.041l-4.648.033c-.076-.027-.183-.025-.323.008l-.21.05-.081.04-.064.05a.721.721 0 0 0-.178.172 1.129 1.129 0 0 0-.161.288 27.045 27.045 0 0 1-1.727 3.696 35.04 35.04 0 0 1-1.098 1.765c-.333.498-.613.865-.839 1.1-.226.236-.43.425-.614.567-.183.143-.322.203-.419.181a11.768 11.768 0 0 1-.275-.066 1.085 1.085 0 0 1-.363-.402 1.825 1.825 0 0 1-.185-.64 7.158 7.158 0 0 1-.057-.666c-.005-.186-.003-.45.008-.789.012-.34.017-.569.017-.69 0-.416.008-.867.024-1.355.016-.487.029-.873.04-1.157.011-.285.016-.586.016-.904 0-.318-.019-.567-.056-.747a2.587 2.587 0 0 0-.17-.526.88.88 0 0 0-.33-.394 1.846 1.846 0 0 0-.541-.222c-.57-.132-1.297-.203-2.18-.214-2-.022-3.286.11-3.857.395-.226.12-.43.284-.613.492-.194.241-.22.373-.08.395.645.098 1.102.333 1.371.706l.097.197c.075.142.15.394.226.756.075.36.124.76.145 1.198.054.8.054 1.484 0 2.054-.054.57-.105 1.013-.153 1.33a2.698 2.698 0 0 1-.218.772 3.276 3.276 0 0 1-.194.362.281.281 0 0 1-.08.082 1.19 1.19 0 0 1-.436.082c-.151 0-.334-.077-.549-.23a3.9 3.9 0 0 1-.67-.632 8.447 8.447 0 0 1-.783-1.126 19.729 19.729 0 0 1-.904-1.708l-.258-.476a41.317 41.317 0 0 1-.661-1.34 26.034 26.034 0 0 1-.743-1.7 1.08 1.08 0 0 0-.387-.525l-.08-.05a1.098 1.098 0 0 0-.26-.139 1.69 1.69 0 0 0-.37-.107l-4.423.033c-.452 0-.758.104-.92.312l-.064.099a.54.54 0 0 0-.049.263c0 .12.032.268.097.443a54.652 54.652 0 0 0 2.106 4.468c.759 1.435 1.418 2.59 1.977 3.466a40.93 40.93 0 0 0 1.711 2.48c.581.778.966 1.276 1.154 1.495.188.22.336.383.444.493l.404.394c.258.263.637.577 1.137.944s1.055.729 1.663 1.085a8.935 8.935 0 0 0 2.123.87 7.221 7.221 0 0 0 2.356.271h1.856c.377-.033.662-.153.856-.361l.064-.083a1.1 1.1 0 0 0 .12-.303c.039-.137.057-.288.057-.452-.01-.47.025-.895.105-1.273.08-.377.172-.662.275-.854a2.096 2.096 0 0 1 .621-.722 1.05 1.05 0 0 1 .13-.058c.257-.087.561-.003.911.255.35.257.678.575.985.953.307.378.675.802 1.106 1.273.43.47.807.82 1.13 1.051l.322.197c.216.132.495.252.84.362.343.109.645.136.903.082l4.132-.066c.409 0 .727-.069.952-.205.226-.137.36-.288.404-.452.043-.164.045-.35.008-.559a2.093 2.093 0 0 0-.113-.435"/>
    </g>
</svg>
