<svg xmlns="http://www.w3.org/2000/svg" width="40" height="40" viewBox="0 0 40 40">
    <path fill="#252161" fill-rule="evenodd" d="M28.844 24.32c-.313-.573-.91-1.275-1.79-2.108l-.028-.029c-.42-.397-.672-.658-.778-.792-.194-.254-.238-.511-.132-.772.075-.197.357-.614.844-1.25.256-.337.459-.607.609-.81 1.08-1.463 1.55-2.397 1.406-2.804l-.056-.095c-.038-.058-.135-.11-.29-.158-.157-.047-.357-.055-.6-.024l-2.7.02a.345.345 0 0 0-.187.004l-.122.029-.047.024-.037.029a.419.419 0 0 0-.103.1.656.656 0 0 0-.094.166c-.294.77-.628 1.485-1.003 2.146-.23.395-.443.736-.637 1.026-.194.289-.356.502-.487.639-.132.136-.25.246-.357.329-.106.082-.187.117-.243.105a6.833 6.833 0 0 1-.16-.039.63.63 0 0 1-.21-.233 1.06 1.06 0 0 1-.108-.372 4.156 4.156 0 0 1-.033-.386 8.221 8.221 0 0 1 .005-.458c.006-.198.01-.331.01-.401 0-.242.004-.504.013-.787.01-.283.017-.507.024-.672.006-.165.009-.34.009-.525 0-.184-.011-.329-.033-.434a1.502 1.502 0 0 0-.098-.305.511.511 0 0 0-.192-.229 1.072 1.072 0 0 0-.314-.129c-.331-.076-.753-.117-1.265-.124-1.162-.012-1.91.064-2.24.23-.131.07-.25.165-.356.285-.113.14-.128.217-.047.23.375.056.64.193.796.41l.057.114c.043.083.087.229.13.439a4.5 4.5 0 0 1 .085.696c.031.464.031.861 0 1.192-.031.33-.06.588-.089.773a1.567 1.567 0 0 1-.239.658.163.163 0 0 1-.047.047.691.691 0 0 1-.253.048c-.087 0-.194-.045-.318-.134a2.265 2.265 0 0 1-.39-.367 4.905 4.905 0 0 1-.454-.653c-.169-.28-.344-.61-.525-.992l-.15-.277a23.99 23.99 0 0 1-.384-.777c-.162-.34-.306-.67-.43-.987a.627.627 0 0 0-.226-.305l-.047-.03a.981.981 0 0 0-.365-.143l-2.568.02c-.263 0-.44.06-.534.181l-.038.057a.313.313 0 0 0-.028.153c0 .07.019.156.056.258.375.896.783 1.76 1.223 2.594.44.833.823 1.504 1.148 2.012.325.509.656.989.994 1.44.337.452.56.741.67.868.11.128.195.223.257.286l.235.23c.15.152.37.335.66.548.291.213.613.423.966.63.353.206.764.374 1.232.505.469.13.925.182 1.369.157h1.077c.219-.019.385-.089.497-.21l.037-.047a.64.64 0 0 0 .07-.177.985.985 0 0 0 .033-.262c-.006-.273.014-.52.061-.74.047-.218.1-.384.16-.495a1.217 1.217 0 0 1 .36-.42.61.61 0 0 1 .075-.033c.15-.05.327-.002.53.148s.394.334.572.553c.178.22.392.466.642.74.25.273.468.476.656.61l.187.114c.125.077.288.146.488.21s.374.08.524.048l2.4-.038c.237 0 .421-.04.552-.12.132-.08.21-.167.235-.262a.751.751 0 0 0 .004-.324 1.215 1.215 0 0 0-.065-.253 1.268 1.268 0 0 0-.061-.12z"/>
</svg>
